<svg xmlns="http://www.w3.org/2000/svg" viewBox="0 0 800 420" width="800" height="420" role="img" aria-label="Vector and keyword retrieval fused by RRF, then re-ranked by a cross-encoder">
<rect width="800" height="420" fill="#0a0a0c"/>
<g stroke="#ffffff" stroke-width="1" opacity="0.03"><line x1="0" y1="0" x2="0" y2="420"/><line x1="40" y1="0" x2="40" y2="420"/><line x1="80" y1="0" x2="80" y2="420"/><line x1="120" y1="0" x2="120" y2="420"/><line x1="160" y1="0" x2="160" y2="420"/><line x1="200" y1="0" x2="200" y2="420"/><line x1="240" y1="0" x2="240" y2="420"/><line x1="280" y1="0" x2="280" y2="420"/><line x1="320" y1="0" x2="320" y2="420"/><line x1="360" y1="0" x2="360" y2="420"/><line x1="400" y1="0" x2="400" y2="420"/><line x1="440" y1="0" x2="440" y2="420"/><line x1="480" y1="0" x2="480" y2="420"/><line x1="520" y1="0" x2="520" y2="420"/><line x1="560" y1="0" x2="560" y2="420"/><line x1="600" y1="0" x2="600" y2="420"/><line x1="640" y1="0" x2="640" y2="420"/><line x1="680" y1="0" x2="680" y2="420"/><line x1="720" y1="0" x2="720" y2="420"/><line x1="760" y1="0" x2="760" y2="420"/><line x1="800" y1="0" x2="800" y2="420"/><line x1="0" y1="0" x2="800" y2="0"/><line x1="0" y1="40" x2="800" y2="40"/><line x1="0" y1="80" x2="800" y2="80"/><line x1="0" y1="120" x2="800" y2="120"/><line x1="0" y1="160" x2="800" y2="160"/><line x1="0" y1="200" x2="800" y2="200"/><line x1="0" y1="240" x2="800" y2="240"/><line x1="0" y1="280" x2="800" y2="280"/><line x1="0" y1="320" x2="800" y2="320"/><line x1="0" y1="360" x2="800" y2="360"/><line x1="0" y1="400" x2="800" y2="400"/></g>
<rect x="0" y="0" width="7" height="420" fill="#38bdf8"/>
<text x="44" y="76" font-family="ui-monospace, SFMono-Regular, Menlo, Consolas, monospace" font-size="22" fill="#38bdf8" letter-spacing="3">WEEK 5 · YC</text>
<rect x="44" y="140" width="232" height="88" rx="12" fill="#38bdf81f" stroke="#38bdf8" stroke-width="1.8"/><text x="160.0" y="193.0" text-anchor="middle" font-family="ui-monospace, SFMono-Regular, Menlo, Consolas, monospace" font-size="24" fill="#f4f4f5" letter-spacing="0.2">pgvector HNSW</text><rect x="44" y="252" width="232" height="88" rx="12" fill="#38bdf81f" stroke="#38bdf8" stroke-width="1.8"/><text x="160.0" y="305.0" text-anchor="middle" font-family="ui-monospace, SFMono-Regular, Menlo, Consolas, monospace" font-size="24" fill="#f4f4f5" letter-spacing="0.2">tsvector GIN</text><path d="M280 184 H300 V240.0 H332 M280 296 H300 V240.0" fill="none" stroke="#38bdf8" stroke-width="2.2" opacity="0.8"/><path d="M332 234.0 L344 240.0 L332 246.0 Z" fill="#38bdf8"/><rect x="348" y="196" width="132" height="88" rx="12" fill="#141419" stroke="#2a2a33" stroke-width="1.8"/><text x="414.0" y="249.0" text-anchor="middle" font-family="ui-monospace, SFMono-Regular, Menlo, Consolas, monospace" font-size="24" fill="#f4f4f5" letter-spacing="0.2">RRF</text><line x1="484" y1="240" x2="509" y2="240" stroke="#38bdf8" stroke-width="2.2" opacity="0.8"/><path d="M508 234 L520 240 L508 246 Z" fill="#38bdf8"/><rect x="524" y="196" width="216" height="88" rx="12" fill="#141419" stroke="#2a2a33" stroke-width="1.8"/><text x="632.0" y="232.0" text-anchor="middle" font-family="ui-monospace, SFMono-Regular, Menlo, Consolas, monospace" font-size="24" fill="#f4f4f5" letter-spacing="0.2">cross-encoder</text><text x="632.0" y="264.0" text-anchor="middle" font-family="ui-monospace, SFMono-Regular, Menlo, Consolas, monospace" font-size="18" fill="#8b8b94">→ SSE stream</text>
</svg>
