<svg xmlns="http://www.w3.org/2000/svg" viewBox="0 0 800 420" width="800" height="420" role="img" aria-label="A slip photo read by a vision model into a typed schema, then indexed for RAG">
<rect width="800" height="420" fill="#0a0a0c"/>
<g stroke="#ffffff" stroke-width="1" opacity="0.03"><line x1="0" y1="0" x2="0" y2="420"/><line x1="40" y1="0" x2="40" y2="420"/><line x1="80" y1="0" x2="80" y2="420"/><line x1="120" y1="0" x2="120" y2="420"/><line x1="160" y1="0" x2="160" y2="420"/><line x1="200" y1="0" x2="200" y2="420"/><line x1="240" y1="0" x2="240" y2="420"/><line x1="280" y1="0" x2="280" y2="420"/><line x1="320" y1="0" x2="320" y2="420"/><line x1="360" y1="0" x2="360" y2="420"/><line x1="400" y1="0" x2="400" y2="420"/><line x1="440" y1="0" x2="440" y2="420"/><line x1="480" y1="0" x2="480" y2="420"/><line x1="520" y1="0" x2="520" y2="420"/><line x1="560" y1="0" x2="560" y2="420"/><line x1="600" y1="0" x2="600" y2="420"/><line x1="640" y1="0" x2="640" y2="420"/><line x1="680" y1="0" x2="680" y2="420"/><line x1="720" y1="0" x2="720" y2="420"/><line x1="760" y1="0" x2="760" y2="420"/><line x1="800" y1="0" x2="800" y2="420"/><line x1="0" y1="0" x2="800" y2="0"/><line x1="0" y1="40" x2="800" y2="40"/><line x1="0" y1="80" x2="800" y2="80"/><line x1="0" y1="120" x2="800" y2="120"/><line x1="0" y1="160" x2="800" y2="160"/><line x1="0" y1="200" x2="800" y2="200"/><line x1="0" y1="240" x2="800" y2="240"/><line x1="0" y1="280" x2="800" y2="280"/><line x1="0" y1="320" x2="800" y2="320"/><line x1="0" y1="360" x2="800" y2="360"/><line x1="0" y1="400" x2="800" y2="400"/></g>
<rect x="0" y="0" width="7" height="420" fill="#fbbf24"/>
<g transform="translate(0,-35)">
<rect x="44" y="199" width="152" height="92" rx="12" fill="#141419" stroke="#2a2a33" stroke-width="1.8"/><text x="120.0" y="237.0" text-anchor="middle" font-family="ui-monospace, SFMono-Regular, Menlo, Consolas, monospace" font-size="24" fill="#f4f4f5" letter-spacing="0.2">slip</text><text x="120.0" y="269.0" text-anchor="middle" font-family="ui-monospace, SFMono-Regular, Menlo, Consolas, monospace" font-size="18" fill="#8b8b94">Thai receipt</text><line x1="200" y1="245" x2="223" y2="245" stroke="#fbbf24" stroke-width="2.2" opacity="0.8"/><path d="M222 239 L234 245 L222 251 Z" fill="#fbbf24"/><rect x="238" y="199" width="166" height="92" rx="12" fill="#fbbf241f" stroke="#fbbf24" stroke-width="1.8"/><text x="321.0" y="237.0" text-anchor="middle" font-family="ui-monospace, SFMono-Regular, Menlo, Consolas, monospace" font-size="24" fill="#f4f4f5" letter-spacing="0.2">vision LLM</text><text x="321.0" y="269.0" text-anchor="middle" font-family="ui-monospace, SFMono-Regular, Menlo, Consolas, monospace" font-size="18" fill="#8b8b94">Instructor</text><line x1="408" y1="245" x2="431" y2="245" stroke="#fbbf24" stroke-width="2.2" opacity="0.8"/><path d="M430 239 L442 245 L430 251 Z" fill="#fbbf24"/><rect x="446" y="199" width="152" height="92" rx="12" fill="#141419" stroke="#2a2a33" stroke-width="1.8"/><text x="522.0" y="237.0" text-anchor="middle" font-family="ui-monospace, SFMono-Regular, Menlo, Consolas, monospace" font-size="24" fill="#f4f4f5" letter-spacing="0.2">Pydantic</text><text x="522.0" y="269.0" text-anchor="middle" font-family="ui-monospace, SFMono-Regular, Menlo, Consolas, monospace" font-size="18" fill="#8b8b94">typed</text><line x1="602" y1="245" x2="625" y2="245" stroke="#fbbf24" stroke-width="2.2" opacity="0.8"/><path d="M624 239 L636 245 L624 251 Z" fill="#fbbf24"/><rect x="640" y="199" width="116" height="92" rx="12" fill="#fbbf241f" stroke="#fbbf24" stroke-width="1.8"/><text x="698.0" y="237.0" text-anchor="middle" font-family="ui-monospace, SFMono-Regular, Menlo, Consolas, monospace" font-size="24" fill="#f4f4f5" letter-spacing="0.2">RAG</text><text x="698.0" y="269.0" text-anchor="middle" font-family="ui-monospace, SFMono-Regular, Menlo, Consolas, monospace" font-size="18" fill="#8b8b94">Qdrant</text>
</g>
</svg>
