<svg xmlns="http://www.w3.org/2000/svg" viewBox="0 0 1200 660" width="1200" height="660" role="img" aria-label="Competitor pricing computed in SQL, with every written claim pinned to a review id">
<rect width="1200" height="660" fill="#0a0a0c"/>
<g stroke="#ffffff" stroke-width="1" opacity="0.03"><line x1="0" y1="0" x2="0" y2="660"/><line x1="40" y1="0" x2="40" y2="660"/><line x1="80" y1="0" x2="80" y2="660"/><line x1="120" y1="0" x2="120" y2="660"/><line x1="160" y1="0" x2="160" y2="660"/><line x1="200" y1="0" x2="200" y2="660"/><line x1="240" y1="0" x2="240" y2="660"/><line x1="280" y1="0" x2="280" y2="660"/><line x1="320" y1="0" x2="320" y2="660"/><line x1="360" y1="0" x2="360" y2="660"/><line x1="400" y1="0" x2="400" y2="660"/><line x1="440" y1="0" x2="440" y2="660"/><line x1="480" y1="0" x2="480" y2="660"/><line x1="520" y1="0" x2="520" y2="660"/><line x1="560" y1="0" x2="560" y2="660"/><line x1="600" y1="0" x2="600" y2="660"/><line x1="640" y1="0" x2="640" y2="660"/><line x1="680" y1="0" x2="680" y2="660"/><line x1="720" y1="0" x2="720" y2="660"/><line x1="760" y1="0" x2="760" y2="660"/><line x1="800" y1="0" x2="800" y2="660"/><line x1="840" y1="0" x2="840" y2="660"/><line x1="880" y1="0" x2="880" y2="660"/><line x1="920" y1="0" x2="920" y2="660"/><line x1="960" y1="0" x2="960" y2="660"/><line x1="1000" y1="0" x2="1000" y2="660"/><line x1="1040" y1="0" x2="1040" y2="660"/><line x1="1080" y1="0" x2="1080" y2="660"/><line x1="1120" y1="0" x2="1120" y2="660"/><line x1="1160" y1="0" x2="1160" y2="660"/><line x1="1200" y1="0" x2="1200" y2="660"/><line x1="0" y1="0" x2="1200" y2="0"/><line x1="0" y1="40" x2="1200" y2="40"/><line x1="0" y1="80" x2="1200" y2="80"/><line x1="0" y1="120" x2="1200" y2="120"/><line x1="0" y1="160" x2="1200" y2="160"/><line x1="0" y1="200" x2="1200" y2="200"/><line x1="0" y1="240" x2="1200" y2="240"/><line x1="0" y1="280" x2="1200" y2="280"/><line x1="0" y1="320" x2="1200" y2="320"/><line x1="0" y1="360" x2="1200" y2="360"/><line x1="0" y1="400" x2="1200" y2="400"/><line x1="0" y1="440" x2="1200" y2="440"/><line x1="0" y1="480" x2="1200" y2="480"/><line x1="0" y1="520" x2="1200" y2="520"/><line x1="0" y1="560" x2="1200" y2="560"/><line x1="0" y1="600" x2="1200" y2="600"/><line x1="0" y1="640" x2="1200" y2="640"/></g>
<rect x="0" y="0" width="7" height="660" fill="#f472b6"/>
<text x="44" y="54" font-family="ui-monospace, SFMono-Regular, Menlo, Consolas, monospace" font-size="17" fill="#8b8b94" text-anchor="start">$ python -m app.report --category smartphones</text>
<text x="44" y="82" font-family="ui-monospace, SFMono-Regular, Menlo, Consolas, monospace" font-size="13.5" fill="#5c5c66" text-anchor="start">16 products · 48 reviews · scheduled nightly</text>
<rect x="44" y="112" width="636" height="500" rx="12" fill="#141419" stroke="#2a2a33" stroke-width="1.5"/>
<text x="68" y="150" font-family="ui-monospace, SFMono-Regular, Menlo, Consolas, monospace" font-size="15" fill="#f4f4f5" text-anchor="start" font-weight="600">competitor positions</text>
<text x="68" y="172" font-family="ui-monospace, SFMono-Regular, Menlo, Consolas, monospace" font-size="12" fill="#5c5c66" text-anchor="start">every figure computed in SQL over the scraped catalogue</text>
<text x="68" y="214" font-family="ui-monospace, SFMono-Regular, Menlo, Consolas, monospace" font-size="12" fill="#5c5c66" text-anchor="start">brand</text>
<text x="344" y="214" font-family="ui-monospace, SFMono-Regular, Menlo, Consolas, monospace" font-size="12" fill="#5c5c66" text-anchor="end">avg price</text>
<text x="464" y="214" font-family="ui-monospace, SFMono-Regular, Menlo, Consolas, monospace" font-size="12" fill="#5c5c66" text-anchor="end">index</text>
<text x="584" y="214" font-family="ui-monospace, SFMono-Regular, Menlo, Consolas, monospace" font-size="12" fill="#5c5c66" text-anchor="end">rating</text>
<line x1="68" y1="228" x2="584" y2="228" stroke="#2a2a33" stroke-width="1"/>
<text x="68" y="256" font-family="ui-monospace, SFMono-Regular, Menlo, Consolas, monospace" font-size="15" fill="#f4f4f5" text-anchor="start">Apple</text>
<text x="344" y="256" font-family="ui-monospace, SFMono-Regular, Menlo, Consolas, monospace" font-size="15" fill="#8b8b94" text-anchor="end">$543.67</text>
<text x="464" y="256" font-family="ui-monospace, SFMono-Regular, Menlo, Consolas, monospace" font-size="15" fill="#5c5c66" text-anchor="end">194.5</text>
<text x="584" y="256" font-family="ui-monospace, SFMono-Regular, Menlo, Consolas, monospace" font-size="16" fill="#f87171" text-anchor="end" font-weight="600">3.22</text>
<text x="68" y="296" font-family="ui-monospace, SFMono-Regular, Menlo, Consolas, monospace" font-size="15" fill="#f4f4f5" text-anchor="start">Samsung</text>
<text x="344" y="296" font-family="ui-monospace, SFMono-Regular, Menlo, Consolas, monospace" font-size="15" fill="#8b8b94" text-anchor="end">$434.98</text>
<text x="464" y="296" font-family="ui-monospace, SFMono-Regular, Menlo, Consolas, monospace" font-size="15" fill="#5c5c66" text-anchor="end">155.6</text>
<text x="584" y="296" font-family="ui-monospace, SFMono-Regular, Menlo, Consolas, monospace" font-size="16" fill="#8b8b94" text-anchor="end" font-weight="600">3.59</text>
<text x="68" y="336" font-family="ui-monospace, SFMono-Regular, Menlo, Consolas, monospace" font-size="15" fill="#f4f4f5" text-anchor="start">Vivo</text>
<text x="344" y="336" font-family="ui-monospace, SFMono-Regular, Menlo, Consolas, monospace" font-size="15" fill="#8b8b94" text-anchor="end">$294.83</text>
<text x="464" y="336" font-family="ui-monospace, SFMono-Regular, Menlo, Consolas, monospace" font-size="15" fill="#5c5c66" text-anchor="end">105.5</text>
<text x="584" y="336" font-family="ui-monospace, SFMono-Regular, Menlo, Consolas, monospace" font-size="16" fill="#8b8b94" text-anchor="end" font-weight="600">3.79</text>
<text x="68" y="376" font-family="ui-monospace, SFMono-Regular, Menlo, Consolas, monospace" font-size="15" fill="#f4f4f5" text-anchor="start">Oppo</text>
<text x="344" y="376" font-family="ui-monospace, SFMono-Regular, Menlo, Consolas, monospace" font-size="15" fill="#8b8b94" text-anchor="end">$271.49</text>
<text x="464" y="376" font-family="ui-monospace, SFMono-Regular, Menlo, Consolas, monospace" font-size="15" fill="#5c5c66" text-anchor="end">97.1</text>
<text x="584" y="376" font-family="ui-monospace, SFMono-Regular, Menlo, Consolas, monospace" font-size="16" fill="#8b8b94" text-anchor="end" font-weight="600">3.90</text>
<text x="68" y="416" font-family="ui-monospace, SFMono-Regular, Menlo, Consolas, monospace" font-size="15" fill="#f4f4f5" text-anchor="start">Realme</text>
<text x="344" y="416" font-family="ui-monospace, SFMono-Regular, Menlo, Consolas, monospace" font-size="15" fill="#8b8b94" text-anchor="end">$238.63</text>
<text x="464" y="416" font-family="ui-monospace, SFMono-Regular, Menlo, Consolas, monospace" font-size="15" fill="#5c5c66" text-anchor="end">85.4</text>
<text x="584" y="416" font-family="ui-monospace, SFMono-Regular, Menlo, Consolas, monospace" font-size="16" fill="#34d399" text-anchor="end" font-weight="600">4.16</text>
<line x1="68" y1="460" x2="584" y2="460" stroke="#2a2a33" stroke-width="1"/>
<text x="68" y="492" font-family="ui-monospace, SFMono-Regular, Menlo, Consolas, monospace" font-size="13" fill="#5c5c66" text-anchor="start">price landscape, USD</text>
<text x="68" y="518" font-family="ui-monospace, SFMono-Regular, Menlo, Consolas, monospace" font-size="15" fill="#f4f4f5" text-anchor="start">127</text>
<text x="68" y="538" font-family="ui-monospace, SFMono-Regular, Menlo, Consolas, monospace" font-size="11.5" fill="#5c5c66" text-anchor="start">min</text>
<text x="156" y="518" font-family="ui-monospace, SFMono-Regular, Menlo, Consolas, monospace" font-size="15" fill="#f4f4f5" text-anchor="start">243</text>
<text x="156" y="538" font-family="ui-monospace, SFMono-Regular, Menlo, Consolas, monospace" font-size="11.5" fill="#5c5c66" text-anchor="start">p25</text>
<text x="244" y="518" font-family="ui-monospace, SFMono-Regular, Menlo, Consolas, monospace" font-size="15" fill="#f4f4f5" text-anchor="start">280</text>
<text x="244" y="538" font-family="ui-monospace, SFMono-Regular, Menlo, Consolas, monospace" font-size="11.5" fill="#5c5c66" text-anchor="start">median</text>
<text x="332" y="518" font-family="ui-monospace, SFMono-Regular, Menlo, Consolas, monospace" font-size="15" fill="#f4f4f5" text-anchor="start">405</text>
<text x="332" y="538" font-family="ui-monospace, SFMono-Regular, Menlo, Consolas, monospace" font-size="11.5" fill="#5c5c66" text-anchor="start">p75</text>
<text x="420" y="518" font-family="ui-monospace, SFMono-Regular, Menlo, Consolas, monospace" font-size="15" fill="#f4f4f5" text-anchor="start">692</text>
<text x="420" y="538" font-family="ui-monospace, SFMono-Regular, Menlo, Consolas, monospace" font-size="11.5" fill="#5c5c66" text-anchor="start">p90</text>
<text x="508" y="518" font-family="ui-monospace, SFMono-Regular, Menlo, Consolas, monospace" font-size="15" fill="#f4f4f5" text-anchor="start">997</text>
<text x="508" y="538" font-family="ui-monospace, SFMono-Regular, Menlo, Consolas, monospace" font-size="11.5" fill="#5c5c66" text-anchor="start">max</text>
<text x="68" y="574" font-family="ui-monospace, SFMono-Regular, Menlo, Consolas, monospace" font-size="12.5" fill="#f472b6" text-anchor="start">the 60% gap between $413 and $661 is the report's lead</text>
<rect x="704" y="112" width="452" height="500" rx="12" fill="#141419" stroke="#f472b6" stroke-width="1.5"/>
<text x="728" y="150" font-family="ui-monospace, SFMono-Regular, Menlo, Consolas, monospace" font-size="15" fill="#f4f4f5" text-anchor="start" font-weight="600">brand profile — Apple</text>
<text x="728" y="172" font-family="ui-monospace, SFMono-Regular, Menlo, Consolas, monospace" font-size="12" fill="#5c5c66" text-anchor="start">written by the agent, nothing unsourced</text>
<text x="728" y="214" font-family="ui-monospace, SFMono-Regular, Menlo, Consolas, monospace" font-size="12" fill="#34d399" text-anchor="start">strengths</text>
<text x="728" y="240" font-family="ui-monospace, SFMono-Regular, Menlo, Consolas, monospace" font-size="13.5" fill="#8b8b94" text-anchor="start">+ Product quality</text>
<text x="728" y="264" font-family="ui-monospace, SFMono-Regular, Menlo, Consolas, monospace" font-size="13.5" fill="#8b8b94" text-anchor="start">+ Value for money on older models</text>
<text x="728" y="302" font-family="ui-monospace, SFMono-Regular, Menlo, Consolas, monospace" font-size="12" fill="#f87171" text-anchor="start">weaknesses</text>
<text x="728" y="328" font-family="ui-monospace, SFMono-Regular, Menlo, Consolas, monospace" font-size="13.5" fill="#8b8b94" text-anchor="start">− Product description accuracy</text>
<text x="728" y="352" font-family="ui-monospace, SFMono-Regular, Menlo, Consolas, monospace" font-size="13.5" fill="#8b8b94" text-anchor="start">− Perceived value on flagship</text>
<text x="745" y="376" font-family="ui-monospace, SFMono-Regular, Menlo, Consolas, monospace" font-size="13.5" fill="#8b8b94" text-anchor="start">iPhone 13 Pro</text>
<line x1="728" y1="414" x2="1132" y2="414" stroke="#2a2a33" stroke-width="1"/>
<text x="728" y="438" font-family="ui-monospace, SFMono-Regular, Menlo, Consolas, monospace" font-size="12" fill="#5c5c66" text-anchor="start">evidence</text>
<text x="728" y="464" font-family="ui-monospace, SFMono-Regular, Menlo, Consolas, monospace" font-size="13" fill="#f472b6" text-anchor="start">dummyjson:121#58b19eb0a6</text>
<text x="728" y="488" font-family="ui-monospace, SFMono-Regular, Menlo, Consolas, monospace" font-size="13" fill="#f472b6" text-anchor="start">dummyjson:124#6490fa57fd</text>
<text x="728" y="512" font-family="ui-monospace, SFMono-Regular, Menlo, Consolas, monospace" font-size="13" fill="#f472b6" text-anchor="start">dummyjson:122#9815c83499</text>
<text x="728" y="536" font-family="ui-monospace, SFMono-Regular, Menlo, Consolas, monospace" font-size="13" fill="#f472b6" text-anchor="start">dummyjson:123#ffa102f5b2</text>
<text x="44" y="640" font-family="ui-monospace, SFMono-Regular, Menlo, Consolas, monospace" font-size="13" fill="#5c5c66" text-anchor="start">prices come from SQL over the catalogue; the model writes prose around them and cites the review behind every claim</text>
</svg>
